<svg width="40" height="40" viewBox="0 0 40 40" fill="none" xmlns="http://www.w3.org/2000/svg">
<path fill-rule="evenodd" clip-rule="evenodd" d="M20 36.25C28.9747 36.25 36.25 28.9747 36.25 20C36.25 11.0254 28.9747 3.75 20 3.75C11.0254 3.75 3.75 11.0254 3.75 20C3.75 28.9747 11.0254 36.25 20 36.25ZM19.6338 16.7172C20.122 16.2291 20.122 15.4376 19.6338 14.9495C19.1457 14.4613 18.3543 14.4613 17.8662 14.9495L13.6995 19.1162C13.2113 19.6043 13.2113 20.3957 13.6995 20.8838L17.8662 25.0505C18.3543 25.5387 19.1457 25.5387 19.6338 25.0505C20.122 24.5623 20.122 23.771 19.6338 23.2828L17.6012 21.25H25.4167C26.107 21.25 26.6667 20.6903 26.6667 20C26.6667 19.3097 26.107 18.75 25.4167 18.75H17.6012L19.6338 16.7172Z" fill="#00D7CC"/>
</svg>
