<svg width="40" height="40" viewBox="0 0 40 40" fill="none" xmlns="http://www.w3.org/2000/svg">
<path fill-rule="evenodd" clip-rule="evenodd" d="M20 36.25C11.0253 36.25 3.75 28.9747 3.75 20C3.75 11.0254 11.0253 3.75 20 3.75C28.9746 3.75 36.25 11.0254 36.25 20C36.25 28.9747 28.9746 36.25 20 36.25ZM20.3662 16.7172C19.878 16.2291 19.878 15.4376 20.3662 14.9495C20.8543 14.4613 21.6457 14.4613 22.1338 14.9495L26.3005 19.1162C26.7887 19.6043 26.7887 20.3957 26.3005 20.8838L22.1338 25.0505C21.6457 25.5387 20.8543 25.5387 20.3662 25.0505C19.878 24.5623 19.878 23.771 20.3662 23.2828L22.3988 21.25H14.5833C13.893 21.25 13.3333 20.6903 13.3333 20C13.3333 19.3097 13.893 18.75 14.5833 18.75H22.3988L20.3662 16.7172Z" fill="#00D7CC"/>
</svg>
