<svg width="55" height="55" viewBox="0 0 55 55" fill="none" xmlns="http://www.w3.org/2000/svg">
<path d="M27.5 55C42.6878 55 55 42.6878 55 27.5C55 12.3122 42.6878 0 27.5 0C12.3122 0 0 12.3122 0 27.5C0 42.6878 12.3122 55 27.5 55Z" fill="#D48B1C"/>
<path d="M27.4821 15.3861C29.0545 15.3861 30.4103 15.5228 31.5497 15.7963C32.6891 16.0697 33.5665 16.5938 34.1818 17.3686C34.8198 18.1206 35.1388 19.2373 35.1388 20.7185C35.1388 21.6528 35.0249 22.5187 34.797 23.3163C34.5691 24.1139 34.159 24.957 33.5665 25.8458C32.974 26.7117 32.1536 27.703 31.1054 28.8196L24.6792 35.7244C25.2489 35.6332 25.8414 35.5762 26.4566 35.5535C27.0947 35.5307 27.71 35.5193 28.3025 35.5193H35.8909V39.3818H19.6202V36.9891C19.6202 36.6245 19.6658 36.3055 19.757 36.032C19.8481 35.7358 20.0076 35.4623 20.2355 35.2116L26.4908 28.3069C27.9265 26.7801 29.0089 25.4356 29.7381 24.2734C30.4673 23.0884 30.8205 22.0288 30.7977 21.0945C30.7749 20.4792 30.6154 20.0348 30.3192 19.7614C30.0229 19.4651 29.6014 19.2714 29.0545 19.1803C28.5075 19.0891 27.8353 19.0436 27.0377 19.0436C26.2857 19.0436 25.5679 19.055 24.8843 19.0777C24.2006 19.1005 23.4714 19.1461 22.6966 19.2145C21.9446 19.26 21.0559 19.3398 20.0304 19.4537L19.8253 16.2406C20.9191 15.99 21.899 15.8077 22.765 15.6937C23.6309 15.5798 24.4399 15.5 25.1919 15.4544C25.9439 15.4089 26.7073 15.3861 27.4821 15.3861Z" fill="white"/>
</svg>
