<svg width="55" height="55" viewBox="0 0 55 55" fill="none" xmlns="http://www.w3.org/2000/svg">
<path d="M27.5 55C42.6878 55 55 42.6878 55 27.5C55 12.3122 42.6878 0 27.5 0C12.3122 0 0 12.3122 0 27.5C0 42.6878 12.3122 55 27.5 55Z" fill="#52A6DA"/>
<path d="M27.0377 15.3519C28.8608 15.3519 30.3192 15.5228 31.413 15.8646C32.5068 16.1837 33.3044 16.742 33.8058 17.5395C34.3299 18.3371 34.5919 19.431 34.5919 20.821C34.5919 21.8693 34.4894 22.815 34.2843 23.6581C34.0792 24.4785 33.7146 25.1621 33.1905 25.709C32.6891 26.2332 31.9599 26.5864 31.0028 26.7687V26.9054C32.598 27.1561 33.6918 27.7828 34.2843 28.7854C34.8768 29.7881 35.1844 31.1326 35.2072 32.8189C35.23 34.4368 34.9907 35.7699 34.4894 36.8182C33.9881 37.8436 33.1563 38.607 31.9941 39.1084C30.8547 39.5869 29.3051 39.8262 27.3454 39.8262C26.0464 39.8262 24.7247 39.7578 23.3802 39.6211C22.0358 39.5072 20.7368 39.3704 19.4835 39.2109L19.6886 35.9978C20.5545 36.0434 21.3407 36.089 22.0472 36.1345C22.7764 36.1801 23.4714 36.2143 24.1323 36.2371C24.8159 36.2599 25.5109 36.2713 26.2174 36.2713C27.4023 36.2713 28.3366 36.1573 29.0203 35.9295C29.7267 35.7016 30.228 35.2914 30.5243 34.6989C30.8433 34.1064 31.0028 33.3088 31.0028 32.3062C31.0028 31.5086 30.8889 30.8363 30.661 30.2894C30.4559 29.7197 30.0571 29.2868 29.4646 28.9905C28.8949 28.6715 28.0404 28.5234 26.901 28.5461H22.4915V25.5723H26.901C27.7214 25.5723 28.3708 25.4698 28.8494 25.2647C29.3507 25.0596 29.7153 24.7975 29.9432 24.4785C30.1939 24.1367 30.3534 23.7493 30.4217 23.3163C30.5129 22.8605 30.5585 22.3934 30.5585 21.9148C30.5357 21.0489 30.3989 20.3994 30.1483 19.9665C29.8976 19.5335 29.4646 19.2486 28.8494 19.1119C28.2569 18.9524 27.4251 18.8726 26.3541 18.8726C25.1919 18.8726 24.0753 18.8954 23.0042 18.941C21.9332 18.9638 20.9875 19.0094 20.1671 19.0777L19.9279 15.9672C21.1584 15.7621 22.3548 15.614 23.517 15.5228C24.702 15.4089 25.8755 15.3519 27.0377 15.3519Z" fill="white"/>
</svg>
