<svg width="24" height="24" viewBox="0 0 24 24" fill="none" xmlns="http://www.w3.org/2000/svg">
<path fill-rule="evenodd" clip-rule="evenodd" d="M21.2286 11.3821C20.0173 17.1392 16.8383 22.2513 11.9996 22.2513C7.16093 22.2513 3.98194 17.1392 2.77062 11.3821C2.46644 9.93639 2.31435 9.21353 2.58841 8.29907C2.66656 8.0383 2.82496 7.67958 2.96503 7.44615C3.45622 6.62756 4.22684 6.17419 5.76809 5.26745L8.57689 3.61498C10.0564 2.74454 10.7962 2.30932 11.6015 2.22334C11.8662 2.19509 12.1331 2.19509 12.3977 2.22334C13.2031 2.30932 13.9428 2.74454 15.4224 3.61498L18.2312 5.26745C19.7724 6.17419 20.543 6.62756 21.0342 7.44615C21.1743 7.67958 21.3327 8.0383 21.4108 8.29907C21.6849 9.21353 21.5328 9.93639 21.2286 11.3821ZM15.0641 10.9936C15.3368 10.6819 15.3052 10.2081 14.9935 9.93531C14.6818 9.66255 14.208 9.69414 13.9352 10.0059L11.1663 13.1703C11.1203 13.2229 11.0804 13.2685 11.0445 13.3089C11.0118 13.2659 10.9754 13.2174 10.9334 13.1615L10.0996 12.0497C9.85111 11.7184 9.38101 11.6512 9.04964 11.8997C8.71826 12.1483 8.65111 12.6184 8.89964 12.9497L9.73346 14.0615L9.75225 14.0866C9.87149 14.2457 9.99649 14.4124 10.1177 14.5402C10.2533 14.6832 10.4593 14.861 10.7621 14.9273C10.9073 14.9591 11.0571 14.9648 11.2043 14.944C11.5112 14.9007 11.7301 14.7388 11.876 14.6064C12.0065 14.4882 12.1437 14.3313 12.2746 14.1816L12.2952 14.158L15.0641 10.9936Z" fill="#08D2C1"/>
</svg>
